<svg id="Flat" height="512" viewBox="0 0 64 64" width="512" xmlns="http://www.w3.org/2000/svg"><path d="m13 22h15v22h-15z" fill="#f4edcb"/><path d="m21 22h7v22h-7z" fill="#f7f2da"/><path d="m16 18h-2a2 2 0 0 1 -2-2v-10a2 2 0 0 1 2-2h5" fill="#005c9a"/><path d="m28 9h-11v-3a2 2 0 0 1 2-2h8.528a2 2 0 0 0 .894-.211l1.578-.789v4a2 2 0 0 1 -2 2z" fill="#0378a3"/><path d="m16 12a2 2 0 0 0 0 4v.5a5.5 5.5 0 0 0 5.5 5.5 5.5 5.5 0 0 0 5.5-5.5v-7.5h-11z" fill="#f0beb4"/><path d="m33 18h23v27h-23z" fill="#d4eded"/><path d="m42 17h4v4h-4z" fill="#e0ada6"/><path d="m44 30h4a5.985 5.985 0 0 0 -1.757-4.243l-2.829 2.829a1.994 1.994 0 0 1 .586 1.414z" fill="#39b54a"/><path d="m43.414 28.586 2.829-2.829a5.985 5.985 0 0 0 -4.243-1.757v4a1.994 1.994 0 0 1 1.414.586z" fill="#f00"/><path d="m44 30a2 2 0 1 1 -2-2v-4a6 6 0 1 0 6 6z" fill="#06aae9"/><path d="m49 23h5v2h-5z" fill="#29485a"/><path d="m50 26h4v2h-4z" fill="#29485a"/><path d="m50 29h4v2h-4z" fill="#29485a"/><path d="m43 41h2v2h-2z" fill="#f00"/><path d="m46 39h2v4h-2z" fill="#fbb03b"/><path d="m49 37h2v6h-2z" fill="#39b54a"/><path d="m52 36h2v7h-2z" fill="#0378a3"/><g fill="#29485a"><path d="m35 38h2v2h-2z"/><path d="m35 41h5v2h-5z"/><path d="m48 20h6v2h-6z"/><path d="m35 20h5v2h-5z"/></g><path d="m13 33v-11h-2a3 3 0 0 0 -3 3v10a3 3 0 0 0 3 3h7v-5z" fill="#f1e8bb"/><path d="m28 22h5v5h-5z" fill="#f4edcb"/><path d="m28 62v-18h-15v18" fill="#00807c"/><path d="m21 49h2v13h-2z" fill="#039791"/><path d="m21 28 3-6h-6z" fill="#db9c94"/><path d="m40 35h-18a1 1 0 0 1 0-2h18a1 1 0 0 1 0 2z" fill="#8c6239"/><path d="m18 33h4v5h-4z" fill="#e0ada6"/><path d="m14 51h-1v-2h1a2 2 0 0 0 2-2h2a4 4 0 0 1 -4 4z" fill="#039791"/><path d="m21 28 4-1-1-5z" fill="#f1e8bb"/><path d="m21 28-4-1 1-5z" fill="#f1e8bb"/></svg>