<svg xmlns="http://www.w3.org/2000/svg" enable-background="new 0 0 511 511" height="239" width="511" style=""><rect id="backgroundrect" width="100%" height="100%" x="0" y="0" fill="none" stroke="none"/><g class="currentLayer" style=""><title>Layer 1</title><path d="m7.5,7.5 h496 v200 h-496 z" fill="#f05475" id="svg_1" class=""/><path d="m7.5,175.5 h256 v32 h-256 z" fill="#ae2c6d" id="svg_2" class=""/><path d="m479.5,111.5 h24 v96 h-24 z" fill="#ae2c6d" id="svg_3" class=""/><path d="m263.5,111.5 h96 v96 h-96 z" fill="#c6fff6" id="svg_4" class=""/><path d="m423.5,7.5 h80 v32 h-80 z" fill="#fff" id="svg_5" class=""/><path d="m479.5,7.5 h24 v32 h-24 z" fill="#e5ecf5" id="svg_6" class=""/><path d="m7.5,39.5 h496 v72 h-496 z" fill="#c6fff6" id="svg_7" class=""/><g fill="#8ad8f6" id="svg_8" class=""><path d="m399.5,39.5 h24 v72 h-24 z" id="svg_9"/><path d="m239.5,39.5 h24 v72 h-24 z" id="svg_10"/><path d="m175.5,39.5 h24 v72 h-24 z" id="svg_11"/><path d="m111.5,39.5 h24 v72 h-24 z" id="svg_12"/><path d="m47.5,39.5 h24 v72 h-24 z" id="svg_13"/><path d="m343.5,39.5 h16 v168 h-16 z" id="svg_14"/><path d="m479.5,39.5 h24 v72 h-24 z" id="svg_15"/></g><circle cx="87.5" cy="207.5" fill="#8bb3d8" r="24" id="svg_16" class=""/><circle cx="167.5" cy="207.5" fill="#8bb3d8" r="24" id="svg_17" class=""/><circle cx="447.5" cy="207.5" fill="#8bb3d8" r="24" id="svg_18" class=""/><path d="m95.5,136 h16 v15 h-16 z" fill="#fff" id="svg_19" class=""/><path d="m159.5,136 h16 v15 h-16 z" fill="#fff" id="svg_20" class=""/><path d="m111.5,0 v15 h304.5 v17 h-401 v-17 h80.5 v-15 h-95.5 v215 h56.909 c3.374,13.759 15.806000000000001,24 30.591,24 s27.216,-10.241 30.591,-24 h18.819 c3.374,13.759 15.806000000000001,24 30.591,24 s27.216,-10.241 30.591,-24 h201.408 v-15 h-32.5 v-81 h49 v48 h80 v33 h-17.909 c-3.374,-13.759 -15.806000000000001,-24 -30.591,-24 c-17.369,0 -31.5,14.131 -31.5,31.5 s14.131,31.5 31.5,31.5 c14.785,0 27.216,-10.241 30.591,-24 h32.909 v-215 zm31.5,47 h49 v57 h-49 zm-64,0 h49 v57 h-49 zm-64,0 h49 v57 h-49 zm41.909,153 h-41.909 v-17 h52.732 c-5.281,4.269 -9.156,10.204 -10.823,17 zm30.591,24 c-9.098,0 -16.5,-7.402 -16.5,-16.5 s7.402,-16.5 16.5,-16.5 s16.5,7.402 16.5,16.5 s-7.402,16.5 -16.5,16.5 zm49.409,-24 h-18.819 c-1.6670000000000003,-6.796 -5.542,-12.731 -10.822,-17 h40.463 c-5.28,4.269 -9.155,10.204 -10.822,17 zm30.591,24 c-9.098,0 -16.5,-7.402 -16.5,-16.5 s7.402,-16.5 16.5,-16.5 s16.5,7.402 16.5,16.5 s-7.402,16.5 -16.5,16.5 zm88.5,-24 h-57.909 c-1.6670000000000003,-6.796 -5.542,-12.731 -10.822,-17 h68.731 zm0,-32 h-241 v-49 h241 zm0,-64 h-49 v-57 h49 zm48,96 h-33 v-81 h33 zm0,-96 h-33 v-57 h33 zm48,96 h-33 v-81 h33 zm0,-96 h-33 v-57 h33 zm64,0 h-49 v-57 h49 zm31.5,120 c-9.098,0 -16.5,-7.402 -16.5,-16.5 s7.402,-16.5 16.5,-16.5 s16.5,7.402 16.5,16.5 s-7.402,16.5 -16.5,16.5 zm48.5,-72 h-65 v-33 h65 zm0,-48 h-65 v-57 h65 zm0,-72 h-65 v-17 h65 z" id="svg_21" class=""/><path d="m127.5,136 h16 v15 h-16 z" id="svg_22" class=""/></g></svg>