<svg height="512" viewBox="0 0 60 60" width="512" xmlns="http://www.w3.org/2000/svg"><g id="006---Hiking" fill="none"><g id="Layer_3" transform="translate(1 1)"><circle id="Oval" cx="37" cy="5" fill="#ffe0b2" r="5"/><path id="Shape" d="m37 0c-.5101742.00696354-1.0161845.09298528-1.5.255 2.0814019.64261054 3.5010321 2.56665608 3.5010321 4.745s-1.4196302 4.10238946-3.5010321 4.745c.4838155.16201472.9898258.24803646 1.5.255 2.7614237 0 5-2.23857625 5-5s-2.2385763-5-5-5z" fill="#dfc49c"/><path id="Shape" d="m48 24c-.0032948 1.1032019-.8967981 1.9967052-2 2h-6.94c-1.2923159.0013076-2.506015-.620434-3.26-1.67l-1.98-2.78-2.42 7.25-7.68-2.56 3.71-10.99c.114466-.3962087.2862857-.7735382.51-1.12 1.2559081-2.013513 3.8373995-2.7411817 5.96-1.68.7192817.3603572 1.3326382.9013514 1.78 1.57l4.73 7.09c.3678862.5575714.992002.8921877 1.66.89h3.93c1.1032019.0032948 1.9967052.8967981 2 2z" fill="#02a9f4"/><path id="Shape" d="m39 49v1.83c.0345822 1.6154481-1.173314 2.9884525-2.78 3.16-.8312934.0611263-1.6505429-.2263603-2.2613539-.7935419-.6108111-.5671817-.958112-1.3629205-.9586461-2.1964581v-2z" fill="#393f4a"/><path id="Shape" d="m39 40.9v8.1h-6v-4.3c.0010857-1.103855-.364758-2.1767617-1.04-3.05l-3.68-4.12v-.01l-4.04-4.52c-.8748183-1.1430516-1.3079914-2.5632914-1.22-4 .0083379-.3816785.0620486-.7610102.16-1.13.0186459-.0878612.0420131-.1746537.07-.26l.46-1.37h.01l7.68 2.56-.03.1c-.2320834.6775215-.0790064 1.4275989.4 1.96l5.97 6.72c.8113472.9156602 1.2595336 2.0965958 1.26 3.32z" fill="#9d27b0"/><path id="Shape" d="m19.75 51.79-.7.9c-.9658865 1.2964932-2.7606263 1.6433029-4.14.8-.6953208-.4610379-1.1677645-1.1903079-1.3043046-2.0133412-.13654-.8230333.0751061-1.6657928.5843046-2.3266588l.9-1.24z" fill="#393f4a"/><path id="Shape" d="m28.28 37.52v.01l-.59 3.4c-.0816189.481068-.2808586.9345101-.58 1.32l-7.36 9.54-4.66-3.88 6.04-8.31c.2921811-.3938284.4812485-.8544654.55-1.34l1.32-9.26h.02c-.0879914 1.4367086.3451817 2.8569484 1.22 4z" fill="#6a1b9a"/><path id="Shape" d="m.107 56.553 1-2c.16910225-.3384076.51469464-.5524195.893-.553h54c.3786657.0002022.7247365.2142706.894.553l1 2c.1548588.3099025.1382854.6778792-.0438055.9726057-.1820908.2947265-.5037544.4742093-.8501945.4743943h-56c-.34626213-.0005309-.6676078-.1801526-.84945791-.474819-.1818501-.2946664-.19832185-.6624376-.04354209-.972181z" fill="#60a917"/><path id="Shape" d="m57.893 56.553-1-2c-.1691022-.3384076-.5146946-.5524195-.893-.553h-3c.3786657.0002022.7247365.2142706.894.553l1 2c.1548588.3099025.1382854.6778792-.0438055.9726057-.1820908.2947265-.5037544.4742093-.8501945.4743943h3c.3462621-.0005309.6676078-.1801526.8494579-.474819s.1983219-.6624376.0435421-.972181z" fill="#549414"/><path id="Shape" d="m28.48 12.57-.54 1.56c-.2237143.3464618-.395534.7237913-.51 1.12l-4.18 12.36c-.0279869.0853463-.0513541.1721388-.07.26l-.59 1.71c-.1746119.5015755-.5415529.9131034-1.0199118 1.1438413-.478359.2307379-1.0288498.2617358-1.5300882.0861587l-6.5-2.25c-1.0145361-.3268219-1.618669-1.3667934-1.4-2.41.1403963-.5430409.5001567-1.0033115.9932159-1.2707012.4930591-.2673898 1.0750648-.3178463 1.6067841-.1392988l.95.33c-1.0430366-.3657327-1.5964233-1.5037456-1.24-2.55l4.58-13.22c.3657327-1.04303663 1.5037456-1.59642333 2.55-1.24l5.67 1.97c1.0392975.3637216 1.5891061 1.4990987 1.23 2.54z" fill="#f44335"/><path id="Shape" d="m27.25 10.03-5.67-1.97c-.6662392-.22671266-1.4026039-.0865793-1.939.369l4.609 1.6c1.0392975.3637216 1.5891061 1.4990987 1.23 2.54l-.54 1.56c-.2237143.3464618-.395534.7237913-.51 1.12l-4.18 12.361c-.0279869.0853463-.0513541.1721388-.07.26l-.59 1.71c-.1177862.3374451-.3251997.6364664-.6.865l1.054.365c.5012384.1755771 1.0517292.1445792 1.5300882-.0861587.4783589-.2307379.8452999-.6422658 1.0199118-1.1438413l.59-1.71c.0186459-.0878612.0420131-.1746537.07-.26l4.18-12.36c.114466-.3962087.2862857-.7735382.51-1.12l.54-1.56c.3587332-1.0420468-.1931085-2.1779284-1.234-2.54z" fill="#c81e1e"/></g><g id="Layer_12" fill="#000" transform="translate(-1)"><path id="Shape" d="m39 12c3.3137085 0 6-2.6862915 6-6s-2.6862915-6-6-6-6 2.6862915-6 6c.0033074 3.31233757 2.6876624 5.9966926 6 6zm0-10c2.209139 0 4 1.790861 4 4s-1.790861 4-4 4-4-1.790861-4-4 1.790861-4 4-4z"/><path id="Shape" d="m3 60h56c.6947884.0010227 1.3403254-.3586134 1.7051109-.9499369.3647854-.5913236.396545-1.3295969.0838891-1.9500631l-1-2c-.3383804-.6772667-1.031915-1.1036993-1.789-1.1h-9v-26.184c1.1951589-.4202307 1.9948642-1.5491146 1.9948642-2.816s-.7997053-2.3957693-1.9948642-2.816v-5.184c0-.5522847-.4477153-1-1-1s-1 .4477153-1 1v5h-2.93c-.3342785.00005-.6464754-.1669303-.832-.445l-4.728-7.092c-1.5197083-2.2834273-4.4696811-3.1300259-6.969-2-.1629019-1.0950526-.9184955-2.0100021-1.963-2.377l-5.671-1.97c-1.5682367-.53817432-3.2765332.29228488-3.822 1.858l-.985 2.831c-.5129135-.1527582-1.0551764.125384-1.2303491.6310814-.1751728.5056974.0788468 1.0596705.5763491 1.2569186l-1.31 3.781c-.5107474-.1468382-1.0471351.1314652-1.2211654.6335985-.1740303.5021332.0750928 1.0526804.5671654 1.2534015-.968 2.795-1.288 3.331-1.1 4.358-1.315649.3155541-2.2572827 1.4726929-2.2988854 2.8250153-.0416028 1.3523224.8271213 2.5651549 2.1208854 2.9609847 6.772 2.357 7.132 2.666 8.38 2.277l-.9 6.338c-.1.688.321.161-7.295 10.426-.9866753 1.2918787-1.0933972 3.0523953-.27 4.454h-11.119c-.75701866-.0034625-1.45043824.4228994-1.789 1.1l-1 2c-.31265588.6204662-.28089634 1.3587395.08388912 1.9500631.36478547.5913235 1.01032247.9509596 1.70511088.9499369zm38.407-6c.3872708-.6573012.5919897-1.406096.593-2.169v-9.931c.0017472-1.4685075-.536377-2.8864221-1.512-3.984l-5.977-6.727c-.2364428-.2651257-.3103447-.6376986-.193-.973l1.83-5.487.842 1.178c.9395999 1.3123214 2.4539885 2.0914795 4.068 2.093h5.942v26zm-9-39.741c1.6027299-.6904702 3.4699181-.1366682 4.437 1.316l4.726 7.089c.5571302.83577 1.4955579 1.3372658 2.5 1.336h3.93c.5522847 0 1 .4477153 1 1s-.4477153 1-1 1h-6.942c-.9684495-.0011585-1.8770644-.4686802-2.441-1.256l-3.8-5.325c-.2014575-.306064-.5541728-.4774387-.9192932-.4466595-.3651205.0307792-.6841686.2587829-.8315454.5942533-.1473769.3354703-.0994787.7246787.1248386 1.0144062l1.524 2.135-2.288 6.863c-.3468003 1.017969-.1174188 2.1438499.6 2.945l5.972 6.721c.6481909.7321632 1.0044718 1.677144 1.001 2.655v9.931c.0297233 1.0907712-.770046 2.0274341-1.852 2.169-.5555747.0412277-1.1031682-.151141-1.5108949-.5307749-.4077268-.3796338-.6386327-.9121249-.6371051-1.4692251v-6.3c-.0052232-1.3482495-.4606557-2.6561221-1.294-3.716l-7.672-8.591c-.9811328-1.2662681-1.2916359-2.9278695-.834-4.463 3.758-11.861 3.8-11.195 3.816-11.295.458-1.355.747-2.662 2.395-3.376zm-5.888 7.465-7.493-2.6 1.309-3.778 7.465 2.593zm-4.547-11.1c.1842009-.5208819.7524343-.79742808 1.276-.621l5.671 1.97c.5174015.1831025.790534.7490044.612 1.268l-.5 1.453c-.2296202.3891018-.4141444.8031069-.55 1.234-.052.166.785.4-7.488-2.471zm.391 20.239-6.5-2.249c-.523447-.1558129-.8500095-.6758305-.763-1.215.0700833-.273156.2501276-.5051082.4973632-.6407562.2472357-.1356481.5395982-.1628862.8076368-.0752438 1.021.355 1.081.406 1.388.372 3.08 1.267 2.989 1.261 3.263 1.261.4778213.0004942.8892331-.3371148.9820049-.8058437s-.1590197-.9376005-.6010049-1.1191563c-4.525-1.861-3.556-1.475-3.823-1.546-.2615656-.2620534-.3491164-.6511682-.225-1l.98-2.83 7.506 2.6c-.373 1.105-1.858 5.531-2.237 6.634-.1814421.5205746-.7499642.7961132-1.271.616zm-5.363 19.875 6.933-9.538c.79-1.063.709-1.6 1.438-6.713.234.325-.53-.549 3.841 4.346l-.512 2.933c-.114.68.294.031-8.444 11.31-.4663595.691689-1.3094816 1.02618-2.123192.8423318-.8137105-.1838481-1.4311266-.8483301-1.554808-1.6733318-.0638206-.5383476.0878806-1.0800861.422-1.507zm12.9-6.879c.6165979-.9294015.9656641-2.0105037 1.009-3.125l2.257 2.527c.5425675.6970537.8361683 1.5556775.834 2.439v6.3c.0034908.7040752.1947316 1.3944752.554 2h-12.48zm-26.9 14.141 1-2h54l1 2z"/></g></g></svg>