<?xml version="1.0" encoding="iso-8859-1"?>
<!-- Generator: Adobe Illustrator 22.0.1, SVG Export Plug-In . SVG Version: 6.00 Build 0)  -->
<svg xmlns="http://www.w3.org/2000/svg" xmlns:xlink="http://www.w3.org/1999/xlink" version="1.1" id="Layer_1" x="0px" y="0px" viewBox="0 0 64 64" style="enable-background:new 0 0 64 64;" xml:space="preserve" width="512" height="512">
<style type="text/css">
	.st0{fill:#52B8D9;}
	.st1{fill:#63312D;}
	.st2{fill:#82D9FF;}
	.st3{fill:#CAF4FF;}
	.st4{fill:#F8F3F3;}
	.st5{fill:#F9DD9D;}
	.st6{fill:#FFEECF;}
	.st7{fill:#F9A287;}
	.st8{fill:#FFC8BB;}
	.st9{fill:#DB785A;}
	.st10{fill:#D1D1D1;}
	.st11{fill:#BCBCBC;}
	.st12{fill:#EFC36A;}
	.st13{fill:#84DBFF;}
	.st14{fill:#E1DDDD;}
</style>
<g>
	<path class="st0" d="M47.481,60.892h-5.244V6.125h5.244c1.105,0,2,0.895,2,2v50.767C49.481,59.996,48.586,60.892,47.481,60.892z"/>
	<path class="st1" d="M47.481,61.392h-5.244c-0.276,0-0.5-0.224-0.5-0.5V6.125c0-0.276,0.224-0.5,0.5-0.5h5.244   c1.379,0,2.5,1.121,2.5,2.5v50.767C49.981,60.271,48.86,61.392,47.481,61.392z M42.737,60.392h4.744c0.827,0,1.5-0.673,1.5-1.5   V8.125c0-0.827-0.673-1.5-1.5-1.5h-4.744V60.392z"/>
	<path class="st2" d="M44.237,60.892H6.248c-1.105,0-2-0.895-2-2V8.125c0-1.105,0.895-2,2-2h37.99c1.105,0,2,0.895,2,2v50.767   C46.237,59.996,45.342,60.892,44.237,60.892z"/>
	<path class="st3" d="M7.248,8.125h38.99c0-1.105-0.895-2-2-2H6.248c-1.105,0-2,0.895-2,2v50.767c0,1.105,0.895,2,2,2V9.125   C6.248,8.573,6.695,8.125,7.248,8.125z"/>
	<path class="st1" d="M44.237,61.392H6.248c-1.379,0-2.5-1.121-2.5-2.5V8.125c0-1.379,1.121-2.5,2.5-2.5h37.989   c1.379,0,2.5,1.121,2.5,2.5v50.767C46.737,60.271,45.616,61.392,44.237,61.392z M6.248,6.625c-0.827,0-1.5,0.673-1.5,1.5v50.767   c0,0.827,0.673,1.5,1.5,1.5h37.989c0.827,0,1.5-0.673,1.5-1.5V8.125c0-0.827-0.673-1.5-1.5-1.5H6.248z"/>
	<rect x="8.248" y="10.125" class="st4" width="33.99" height="46.767"/>
	<path class="st1" d="M42.237,57.392H8.248c-0.276,0-0.5-0.224-0.5-0.5V10.125c0-0.276,0.224-0.5,0.5-0.5h33.989   c0.276,0,0.5,0.224,0.5,0.5v46.767C42.737,57.168,42.514,57.392,42.237,57.392z M8.748,56.392h32.989V10.625H8.748V56.392z"/>
	<rect x="15.489" y="3.108" class="st5" width="20.708" height="9.392"/>
	<polygon class="st6" points="17.489,5.108 36.198,5.108 36.198,3.108 15.489,3.108 15.489,12.5 17.489,12.5  "/>
	<path class="st1" d="M36.197,13H15.489c-0.276,0-0.5-0.224-0.5-0.5V3.108c0-0.276,0.224-0.5,0.5-0.5h20.708   c0.276,0,0.5,0.224,0.5,0.5V12.5C36.697,12.776,36.474,13,36.197,13z M15.989,12h19.708V3.608H15.989V12z"/>
	<path class="st1" d="M20.336,28.5h-7.167c-0.276,0-0.5-0.224-0.5-0.5v-7.167c0-0.276,0.224-0.5,0.5-0.5h7.167   c0.276,0,0.5,0.224,0.5,0.5V28C20.836,28.276,20.612,28.5,20.336,28.5z M13.669,27.5h6.167v-6.167h-6.167V27.5z"/>
	<rect x="23.586" y="23.917" class="st1" width="13.916" height="1"/>
	<path class="st1" d="M20.336,39.417h-7.167c-0.276,0-0.5-0.224-0.5-0.5V31.75c0-0.276,0.224-0.5,0.5-0.5h7.167   c0.276,0,0.5,0.224,0.5,0.5v7.167C20.836,39.193,20.612,39.417,20.336,39.417z M13.669,38.417h6.167V32.25h-6.167V38.417z"/>
	<rect x="23.586" y="34.833" class="st1" width="13.916" height="1"/>
	<path class="st1" d="M20.336,50.333h-7.167c-0.276,0-0.5-0.224-0.5-0.5v-7.166c0-0.276,0.224-0.5,0.5-0.5h7.167   c0.276,0,0.5,0.224,0.5,0.5v7.166C20.836,50.109,20.612,50.333,20.336,50.333z M13.669,49.333h6.167v-6.166h-6.167V49.333z"/>
	<rect x="23.586" y="45.75" class="st1" width="13.916" height="1"/>
	<circle class="st7" cx="47.307" cy="48.446" r="12.446"/>
	<path class="st1" d="M47.307,61.392c-7.139,0-12.946-5.808-12.946-12.945c0-7.139,5.808-12.946,12.946-12.946   c7.138,0,12.945,5.808,12.945,12.946C60.252,55.584,54.444,61.392,47.307,61.392z M47.307,36.5   c-6.587,0-11.946,5.359-11.946,11.946s5.359,11.945,11.946,11.945s11.945-5.358,11.945-11.945S53.894,36.5,47.307,36.5z"/>
	<path class="st4" d="M45.458,53.753c-0.41,0-0.82-0.152-1.14-0.457l-3.885-3.709c-0.659-0.629-0.683-1.674-0.054-2.333l0,0   c0.629-0.659,1.674-0.683,2.333-0.054l2.739,2.615l6.44-6.213c0.656-0.633,1.701-0.614,2.334,0.042l0,0   c0.633,0.656,0.614,1.701-0.042,2.334l-7.581,7.313C46.284,53.599,45.872,53.753,45.458,53.753z"/>
	<path class="st1" d="M45.458,54.253c-0.555,0-1.082-0.211-1.484-0.596l-3.886-3.709c-0.415-0.396-0.651-0.931-0.664-1.505   s0.198-1.119,0.595-1.534c0.82-0.858,2.184-0.889,3.039-0.071l2.394,2.283l6.096-5.879c0.412-0.4,0.962-0.621,1.531-0.604   c0.573,0.011,1.109,0.244,1.509,0.657c0.823,0.853,0.8,2.217-0.054,3.041l-7.582,7.313C46.55,54.039,46.019,54.253,45.458,54.253z    M41.574,47.244c-0.304,0-0.606,0.119-0.833,0.355c-0.212,0.222-0.324,0.514-0.317,0.82c0.007,0.308,0.133,0.594,0.354,0.806   l3.886,3.709c0.432,0.412,1.165,0.41,1.593-0.004l7.582-7.313c0.456-0.44,0.47-1.17,0.029-1.626   c-0.214-0.222-0.501-0.347-0.809-0.353c-0.323-0.001-0.598,0.109-0.818,0.322L45.8,50.174c-0.191,0.188-0.498,0.188-0.691,0.002   l-2.74-2.615C42.146,47.349,41.859,47.244,41.574,47.244z"/>
</g>
</svg>
