<svg id="Capa_1" enable-background="new 0 0 512 512" height="512" viewBox="0 0 512 512" width="512" xmlns="http://www.w3.org/2000/svg"><path d="m245 22c-107.69 0-199.148 69.482-232 166.06l38.907 229.745c44.842 57.336 114.661 94.195 193.093 94.195 135.31 0 245-109.69 245-245s-109.69-245-245-245z" fill="#67e5ee"/><path d="m372.28 351.761-127.571 16.659-203.661-14.738 10.854 64.093c44.838 57.351 114.656 94.225 193.098 94.225 105.511 0 195.421-66.705 229.91-160.239z" fill="#363540"/><path d="m372.28 351.761-127.571 16.659-203.661-14.738 10.854 64.093c44.838 57.351 114.656 94.225 193.098 94.225 105.511 0 195.421-66.705 229.91-160.239z" fill="#74727f"/><path d="m372.28 351.761-127.571 16.659-4.719-.341c21.994 14.978 36.441 40.215 36.441 68.831 0 32.738-18.911 61.047-46.398 74.635 4.951.299 9.941.455 14.967.455 105.511 0 195.421-66.705 229.91-160.239z" fill="#5f5e6a"/><path d="m442.366 317.681c-13.471 2.369-28.821 7.158-44.935 16.711l-29.027 17.211c-8.558 12.581-13.564 27.773-13.564 44.136 0 43.399 35.181 78.58 78.58 78.58s78.58-35.18 78.58-78.579c0-40.372-30.451-73.615-69.634-78.059zm-8.946 117.811c-21.955 0-39.752-17.798-39.752-39.752s17.797-39.752 39.752-39.752c21.954 0 39.752 17.798 39.752 39.752s-17.797 39.752-39.752 39.752z" fill="#21212b"/><path d="m433.42 474.32c13.812 0 26.785-3.575 38.063-9.833-16.963-4.915-17.165-15.671-15.77-21.662.507-2.177-.606-4.45-2.704-5.223-2.952-1.087-4.641-2.793-5.565-4.663-4.362 1.645-9.086 2.553-14.024 2.553-21.955 0-39.752-17.798-39.752-39.752 0-14.665 7.947-27.466 19.763-34.356l-15.388-27.344c-.205.12-.408.232-.613.353l-29.027 17.211c-8.558 12.581-13.564 27.773-13.564 44.136.001 43.399 35.182 78.58 78.581 78.58z"/><path d="m433.42 444.702c-26.998 0-48.962-21.964-48.962-48.961 0-26.998 21.964-48.962 48.962-48.962 26.997 0 48.961 21.964 48.961 48.962 0 26.997-21.963 48.961-48.961 48.961z" fill="#4b4a55"/><path d="m455.25 439.547c-.484-.87-1.247-1.579-2.241-1.945-6.499-2.393-6.919-7.777-6.379-11.346.284-1.873-.636-3.766-2.335-4.604-8.324-4.108-4.453-13.336-4.453-13.336l-30.918-54.942c-14.611 8.481-24.465 24.289-24.465 42.366 0 26.997 21.964 48.961 48.962 48.961 7.841.001 15.251-1.863 21.829-5.154z" fill="#363540"/><path d="m433.42 365.198c-16.842 0-30.543 13.701-30.543 30.543 0 16.841 13.701 30.542 30.543 30.542 16.841 0 30.542-13.701 30.542-30.542 0-16.842-13.701-30.543-30.542-30.543z" fill="#d6d6d0"/><path d="m433.42 426.283c4.546 0 8.859-1.006 12.739-2.794-.409-.776-1.043-1.431-1.864-1.836-8.324-4.108-4.453-13.336-4.453-13.336l-21.889-38.897c-9.013 5.316-15.076 15.121-15.076 26.321 0 16.84 13.701 30.542 30.543 30.542z" fill="#c6c6c1"/><path d="m413.736 326.144c-5.317 2.255-10.764 4.963-16.305 8.249l-8.593 5.095 32.005 62.674c3.554 6.961 12.069 9.694 18.999 6.154 6.945-3.547 9.701-12.053 6.154-18.998z" fill="#eeefeb"/><path d="m415.131 361.908c.091-.051.183-.102.274-.153 5.762-3.205 12.667-2.283 17.395 1.723l-19.064-37.333c-5.317 2.255-10.764 4.963-16.305 8.249l-8.593 5.095 18.383 35.998c-.038-5.454 2.831-10.741 7.91-13.579z" fill="#d6d6d0"/><path d="m491.482 310.077c-37.982-53.835-97.768-44.91-101.88-45.777-.06.141-.113.285-.176.425l-46.61 104.505 54.615-32.382c41.371-24.53 77.772-17.724 90.004-18.877 4.032 0 6.405-4.551 4.047-7.894z" fill="#fbb031"/><path d="m389.602 264.301c-.06.141-.113.285-.176.425l-46.61 104.505 54.615-32.382c8.22-4.874 16.238-8.495 23.915-11.203-39.691-23.311-8.186-60.721-8.186-60.721-12.866-1.324-22.035-.303-23.558-.624z" fill="#f7991e"/><path d="m11.846 342.357c1.136 3.508 2.34 6.986 3.626 10.424l32.245 56.975c1.168-5.487 1.803-11.171 1.803-17.006 0-16.778-5.072-32.365-13.76-45.326z" fill="#21212b"/><path d="m30.985 386.312c-.726-3.374-1.113-6.875-1.113-10.467 0-7.655 1.74-14.9 4.834-21.375.288-.997.595-1.989.944-2.97l-20.236 1.178c4.352 11.659 9.57 22.894 15.571 33.634z" fill="#d6d6d0"/><path d="m36.954 346.581c-5.993 8.21-9.538 18.321-9.538 29.265 0 1.421.074 2.824.191 4.215 7.274 13.957 15.85 27.126 25.571 39.345 7.102 3.911 15.259 6.142 23.94 6.142 19.636 0 36.607-11.39 44.681-27.921-13.001-14.287-23.599-29.359-30.185-39.464z" fill="#eeefeb"/><path d="m79.013 398.196v-42.703l-42.059-8.912c-5.993 8.21-9.538 18.321-9.538 29.265 0 1.421.074 2.824.191 4.215 7.274 13.957 15.85 27.126 25.571 39.345 7.102 3.911 15.259 6.142 23.94 6.142.624 0 1.245-.012 1.863-.035-14.633-14.677.032-27.317.032-27.317z" fill="#d6d6d0"/><path d="m69.922 353.567c-8.316 3.539-14.147 11.783-14.147 21.391 0 12.834 10.404 23.239 23.239 23.239s23.239-10.404 23.239-23.239c0-.509-.044-1.006-.076-1.506-4.172-5.706-7.739-10.955-10.563-15.288z" fill="#c6c6c1"/><path d="m159.977 348.437 3.846 23.872c37.533 7.574 71.396 10.848 96.703 12.193l9.483-22.648c-26.77-1.026-66.027-4.252-110.032-13.417z"/><path d="m163.824 372.309c16.389 3.307 32.077 5.794 46.659 7.659 1.031-1.425 1.794-2.225 1.794-2.225 13.085-8.008 2.717-20.297 2.717-20.297v-.001c-16.96-2.054-35.52-4.947-55.016-9.008z" fill="#21212b"/><path d="m331.207 239.248-20.931-76.576c-.141-.517-.241-1.036-.322-1.556-15.266 3.384-25.132 18.225-22.342 33.61l7.467 41.195c4.768 26.302 1.81 53.423-8.514 78.078l-28.931 69.092c12.913.755 23.51.998 31.072 1.044h.156c11.032 0 20.654-7.047 23.974-17.576l16.948-53.734c7.545-23.93 8.038-49.374 1.423-73.577z" fill="#4b4a55"/><path d="m331.765 300.467s-3.24-15.051-19.073-15.051-15.961-12.355-15.961-12.355l-.022.005c-1.27 14.012-4.655 27.822-10.145 40.934l-28.931 69.092c12.913.755 23.51.998 31.072 1.044h.156c11.032 0 20.654-7.047 23.974-17.576l16.948-53.734c1.097-3.478 2.026-6.991 2.825-10.525z" fill="#363540"/><path d="m152.553 195.07c-10.257 1.449-24.74 3.045-45.001 4.509-38.896 2.812-74.144-6.594-93.877-13.436-3.544 10.14-6.454 20.576-8.653 31.275 13.072 3.084 37.339 9.895 98.755 25.137 24.174 6.146 39.585-2.175 71.752-7.462 1.629-.332 3.197.098 4.388 1.142.721-1.438 10.419-9.674 5.45-22.17-5.23-13.158-18.794-20.977-32.814-18.995z" fill="#eb5793"/><path d="m65.579 225.671c-5.645-18.785 13.434-26.059 13.434-26.059l.001-.001c-27.147-1.802-50.582-8.351-65.339-13.468-3.544 10.14-6.454 20.576-8.653 31.275 9.853 2.324 26.075 6.768 59.762 15.342 1.185-2.122 1.526-4.656.795-7.089z" fill="#e7387f"/><path d="m391.671 239.73c-9.342-20.068-29.583-59.887-55.914-90.542-4.751-5.532-12.807-7.238-19.198-3.727-6.369 3.498-9.314 10.78-7.467 17.535l20.931 76.576c6.54 23.926 6.05 49.23-1.41 72.885l-16.947 53.734c-1.948 6.176-6.242 11.114-11.708 13.979l17.112 32.197c7.913-4.914 14.37-12.121 18.308-20.951l56.505-126.69c3.554-7.972 3.472-17.083-.212-24.996z" fill="#ffc743"/><path d="m175.283 233.89-39.942 8.203c-10.342 2.124-21.03 1.875-31.261-.728l-98.799-25.134c-3.452 16.381-5.281 33.361-5.281 50.769 0 26.448 4.208 51.91 11.962 75.773l78.424 16.618 2.182 1.083c-.391-.593-.782-1.185-1.153-1.753-1.065-1.634-.609-3.298.173-4.312.597-.776 1.614-1.464 2.89-1.464.385 0 .794.063 1.221.205 23.898 7.936 47.573 13.855 69.897 18.27l.97-1.025-8.371-51.954c-2.319-14.393.054-29.15 6.768-42.091l17.266-33.276c2.471-4.763-1.688-10.264-6.946-9.184z" fill="#fbb031"/><path d="m5.281 216.231c-3.452 16.381-5.281 33.361-5.281 50.769 0 26.448 4.208 51.91 11.962 75.773l24.112 5.109c-.107-.153-.206-.304-.314-.458-33.547-47.773-.727-72.149 15.238-80.527 3.815-2.002 5.731-6.449 4.506-10.58-3.134-10.57 2.008-17.063 6.697-20.592 1.467-1.104 2.545-2.574 3.164-4.209z" fill="#f7991e"/><path d="m4.775 249.039c-1.38 0-2.754.029-4.122.081-.426 5.905-.653 11.866-.653 17.88 0 26.448 4.208 51.91 11.962 75.773l78.424 16.618 2.182 1.083c-.391-.593-.782-1.185-1.153-1.753-1.065-1.634-.609-3.298.173-4.312.597-.776 1.614-1.464 2.89-1.464.385 0 .794.063 1.221.205 8.238 2.736 16.444 5.215 24.582 7.493-7.101-62.905-56.105-111.604-115.506-111.604z" fill="#ffc743"/><path d="m35.76 347.424c-33.547-47.773-.727-72.149 15.238-80.527 2.142-1.124 3.685-3.02 4.41-5.197-15.309-8.108-32.484-12.661-50.633-12.661-1.38 0-2.754.029-4.122.081-.426 5.905-.653 11.866-.653 17.88 0 26.448 4.208 51.91 11.962 75.773l24.112 5.109c-.107-.153-.206-.304-.314-.458z" fill="#fbb031"/><path d="m272.206 119.246c0 20.463 33.576 37.051 74.993 37.051v-74.102c-41.418 0-74.993 16.588-74.993 37.051z" fill="#fbb031"/><path d="m365.84 82.195h-19.925v74.103h8.002c4.644 0 8.65-3.131 9.591-7.496l11.923-55.301c1.258-5.835-3.384-11.306-9.591-11.306z" fill="#eeefeb"/><path d="m286.527 110.237c-2.577 0-5.14-1.075-6.962-3.175-3.332-3.842-2.919-9.659.923-12.991l31.551-27.365c1.016-.881 1.599-2.159 1.599-3.504v-17.744c0-5.086 4.123-9.209 9.21-9.209 5.086 0 9.209 4.123 9.209 9.209v17.743c0 6.688-2.898 13.037-7.95 17.418l-31.551 27.365c-1.741 1.512-3.89 2.253-6.029 2.253z" fill="#d6d6d0"/><path d="m317.529 412.073-17.098-32.17c-3.505 1.94-7.512 3.029-11.719 3.004-33.86-.204-111.522-3.988-192.626-30.922-4.444-1.476-8.257 3.484-5.7 7.406 7.509 11.52 20.23 29.499 35.785 45.407 13.911 14.227 33.332 21.689 53.202 20.655l115.161-5.996c8.336-.435 16.213-3.064 22.995-7.384z" fill="#fbb031"/><path d="m212.277 377.742c-34.25-4.286-74.77-12.002-116.191-25.758-4.444-1.476-8.257 3.484-5.7 7.406 7.509 11.52 20.23 29.499 35.786 45.407 13.91 14.227 33.332 21.689 53.202 20.655l47.497-2.473c-38.322-20.437-14.594-45.237-14.594-45.237z" fill="#f7991e"/><circle cx="292.239" cy="114.637" fill="#21212b" r="24.354"/><path d="m225.173 132.241c-2.056-8.146 2.881-16.416 11.028-18.472l45.953-11.599c8.144-2.056 16.417 2.88 18.473 11.027 2.056 8.146-2.88 16.416-11.027 18.472l-45.953 11.599c-8.159 2.061-16.421-2.896-18.474-11.027z" fill="#363540"/><path d="m307.783 6.01v52.141c14.341-.071 25.947-11.713 25.947-26.071s-11.605-25.999-25.947-26.07z" fill="#eeefeb"/><path d="m301.094 64.161c-5.086 0-9.21-4.123-9.21-9.209v-45.743c0-5.086 4.123-9.209 9.21-9.209 5.086 0 9.209 4.123 9.209 9.209v45.743c0 5.086-4.123 9.209-9.209 9.209z" fill="#d6d6d0"/></svg>