<svg id="Capa_1" enable-background="new 0 0 512 512" height="512" viewBox="0 0 512 512" width="512" xmlns="http://www.w3.org/2000/svg"><path d="m269.512 150.562v-63.619h-25.926l-8.919 31.619 8.919 32z" fill="#0dca71"/><path d="m217.66 86.943h25.926v63.619h-25.926z" fill="#04db7b"/><path d="m248 228.229h162.952l-39.366-88.334h-123.586z" fill="#f3f9ff"/><path d="m237 139.895h-121.414l-39.366 88.334h160.78z" fill="#fcfeff"/><path d="m381.323 124.896h-137.737l-8.919 36.333 8.919 67.667h15v-74.001h103.263l32.977 74.001h32.845z" fill="#474f54"/><path d="m105.849 124.896-46.348 104h32.844l32.978-74.001h103.263v74.001h15v-104z" fill="#676e74"/><path d="m512 225.229h-268.414l-19.586 79 19.586 59.667h268.414v-51.667l-2.813-15 2.813-15z" fill="#fdae02"/><path d="m0 225.229h243.586v138.667h-243.586z" fill="#fdcb02"/><ellipse cx="113.747" cy="360.31" fill="#e7e7e7" rx="49.747" ry="49.747" transform="matrix(.707 -.707 .707 .707 -221.462 185.964)"/><path d="m113.748 425.057c-35.703 0-64.748-29.045-64.748-64.747s29.045-64.747 64.748-64.747c35.702 0 64.747 29.045 64.747 64.747s-29.046 64.747-64.747 64.747zm0-99.494c-19.16 0-34.748 15.587-34.748 34.747s15.588 34.747 34.748 34.747 34.747-15.588 34.747-34.747c0-19.16-15.588-34.747-34.747-34.747z" fill="#676e74"/><ellipse cx="376.919" cy="360.31" fill="#d8d8d8" rx="49.747" ry="49.747" transform="matrix(.395 -.919 .919 .395 -102.875 564.487)"/><path d="m376.919 425.057c-35.702 0-64.747-29.045-64.747-64.747s29.045-64.747 64.747-64.747 64.747 29.045 64.747 64.747c.001 35.702-29.045 64.747-64.747 64.747zm0-99.494c-19.16 0-34.747 15.587-34.747 34.747s15.588 34.747 34.747 34.747c19.16 0 34.747-15.588 34.747-34.747.001-19.16-15.587-34.747-34.747-34.747z" fill="#474f54"/><path d="m482 282.229h30v30h-30z" fill="#fc7100"/><path d="m195.623 282.229h32v30h-32z" fill="#474f54"/><path d="m259.549 282.229h32v30h-32z" fill="#32393f"/></svg>