<svg height="512" viewBox="0 0 58 58" width="512" xmlns="http://www.w3.org/2000/svg"><g id="023---Bus-Ticket" fill="none"><path id="Shape" d="m56 28c1.1032019-.0032948 1.9967052-.8967981 2-2v-19c0-3.86599325-3.1340068-7-7-7h-46c-2.76142375 0-5 2.23857625-5 5v18c0 1.3260824.5267842 2.597852 1.46446609 3.5355339.9376819.9376819 2.20945146 1.4644661 3.53553391 1.4644661z" fill="#e64c3c"/><circle id="Oval" cx="12" cy="28" fill="#393f4a" r="6"/><circle id="Oval" cx="12" cy="28" fill="#ecf0f1" r="2"/><circle id="Oval" cx="45" cy="28" fill="#393f4a" r="6"/><circle id="Oval" cx="45" cy="28" fill="#ecf0f1" r="2"/><path id="Shape" d="m15 5v7.95c-.32-2.54-1.84-8.53-9.22-8.92.158-.045-.415-.03 8.22-.03.5522847 0 1 .44771525 1 1z" fill="#67b9cc"/><path id="Shape" d="m15 12.95c.0154823.2742325-.0831995.5426478-.2726265.7415461-.1894271.1988984-.4527123.3105486-.7273735.3084539h-5c-2.209139 0-4-1.790861-4-4v-5c-.00665767-.468685.32080694-.87591662.78-.97 7.38.39 8.9 6.38 9.22 8.92z" fill="#2fa8cc"/><path id="Shape" d="m28 5v7.95c-.31-2.45-1.73-8.09-8.42-8.86.28-.129-.2-.09 7.42-.09.5522847 0 1 .44771525 1 1z" fill="#67b9cc"/><path id="Shape" d="m28 12.95c.0154823.2742325-.0831995.5426478-.2726265.7415461-.1894271.1988984-.4527123.3105486-.7273735.3084539h-7c-.5522847 0-1-.4477153-1-1v-8c.0019899-.38970685.2275774-.74364584.58-.91 6.69.77 8.11 6.41 8.42 8.86z" fill="#2fa8cc"/><path id="Shape" d="m41 5v7.95c-.31-2.45-1.73-8.09-8.42-8.86.28-.129-.2-.09 7.42-.09.5522847 0 1 .44771525 1 1z" fill="#67b9cc"/><path id="Shape" d="m41 12.95c.0154823.2742325-.0831995.5426478-.2726265.7415461-.1894271.1988984-.4527123.3105486-.7273735.3084539h-7c-.5522847 0-1-.4477153-1-1v-8c.0019899-.38970685.2275774-.74364584.58-.91 6.69.77 8.11 6.41 8.42 8.86z" fill="#2fa8cc"/><path id="Shape" d="m53 7v5.95c-.29-2.35-1.61-7.63-7.61-8.74.371-.284.226-.21 4.61-.21 1.6568542 0 3 1.34314575 3 3z" fill="#67b9cc"/><path id="Shape" d="m53 12.95v3.05c0 .5522847-.4477153 1-1 1h-4c-1.6568542 0-3-1.3431458-3-3v-9c-.0015758-.31003641.1429139-.60272071.39-.79 6 1.11 7.32 6.39 7.61 8.74z" fill="#2fa8cc"/><path id="Shape" d="m55 20h3v4h-3c-.5522847 0-1-.4477153-1-1v-2c0-.5522847.4477153-1 1-1z" fill="#f5efca"/><path id="Shape" d="m41 19h-37c-.55228475 0-1-.4477153-1-1s.44771525-1 1-1h37c.5522847 0 1 .4477153 1 1s-.4477153 1-1 1z" fill="#c03a2b"/><path id="Shape" d="m56 34h-54c-1.10320187.0032948-1.9967052.8967981-2 2v20c.0032948 1.1032019.89679813 1.9967052 2 2h54c1.1032019-.0032948 1.9967052-.8967981 2-2v-5.1c-.0042276-.4860577-.3521353-.901032-.83-.99-1.8416037-.397401-3.1562583-2.0260064-3.1562583-3.91s1.3146546-3.512599 3.1562583-3.91c.4778647-.088968.8257724-.5039423.83-.99v-5.1c-.0032948-1.1032019-.8967981-1.9967052-2-2z" fill="#f3d55b"/><path id="Shape" d="m54 46c-.0016782 1.8892475 1.3212372 3.5209822 3.17 3.91.4778647.088968.8257724.5039423.83.99v5.1c-.0032948 1.1032019-.8967981 1.9967052-2 2h-16v-20h18v3.1c-.0042276.4860577-.3521353.901032-.83.99-1.8487628.3890178-3.1716782 2.0207525-3.17 3.91z" fill="#f0c419"/><path id="Shape" d="m40 34v4h-40v-2c.0032948-1.1032019.89679813-1.9967052 2-2z" fill="#f29c1f"/><path id="Shape" d="m58 36v2h-18v-4h16c1.1032019.0032948 1.9967052.8967981 2 2z" fill="#e57e25"/><g fill="#d25627"><path id="Shape" d="m40 44c-.5522847 0-1-.4477153-1-1v-1c0-.5522847.4477153-1 1-1s1 .4477153 1 1v1c0 .5522847-.4477153 1-1 1z"/><path id="Shape" d="m40 49c-.5522847 0-1-.4477153-1-1v-1c0-.5522847.4477153-1 1-1s1 .4477153 1 1v1c0 .5522847-.4477153 1-1 1z"/><path id="Shape" d="m40 54c-.5522847 0-1-.4477153-1-1v-1c0-.5522847.4477153-1 1-1s1 .4477153 1 1v1c0 .5522847-.4477153 1-1 1z"/><path id="Shape" d="m41 57v1h-2v-1c0-.5522847.4477153-1 1-1s1 .4477153 1 1z"/><path id="Shape" d="m44 55c-.5522847 0-1-.4477153-1-1v-3c0-.5522847.4477153-1 1-1s1 .4477153 1 1v3c0 .5522847-.4477153 1-1 1z"/><path id="Shape" d="m48 55c-.5522847 0-1-.4477153-1-1v-3c0-.5522847.4477153-1 1-1s1 .4477153 1 1v3c0 .5522847-.4477153 1-1 1z"/><path id="Shape" d="m52 55c-.5522847 0-1-.4477153-1-1v-3c0-.5522847.4477153-1 1-1s1 .4477153 1 1v3c0 .5522847-.4477153 1-1 1z"/><path id="Shape" d="m19 44h-14c-.55228475 0-1-.4477153-1-1s.44771525-1 1-1h14c.5522847 0 1 .4477153 1 1s-.4477153 1-1 1z"/><path id="Shape" d="m19 48h-14c-.55228475 0-1-.4477153-1-1s.44771525-1 1-1h14c.5522847 0 1 .4477153 1 1s-.4477153 1-1 1z"/><path id="Shape" d="m35 52h-30c-.55228475 0-1-.4477153-1-1s.44771525-1 1-1h30c.5522847 0 1 .4477153 1 1s-.4477153 1-1 1z"/></g></g></svg>